<svg width="19" height="14" viewBox="0 0 19 14" fill="none" xmlns="http://www.w3.org/2000/svg">
<path d="M16.08 1.52997C14.464 0.231301 11.9087 0.0113008 11.8007 0.00196742C11.63 -0.0126992 11.468 0.0839676 11.398 0.239968C11.3953 0.245301 11.2527 0.659301 11.1147 1.05863C12.9927 1.3873 14.2687 2.11663 14.3367 2.15663C14.6553 2.34197 14.762 2.75063 14.576 3.06863C14.4527 3.28063 14.2293 3.3993 14 3.3993C13.886 3.3993 13.7713 3.37063 13.666 3.3093C13.6473 3.29797 11.7753 2.23263 9.33467 2.23263C6.89333 2.23263 5.02067 3.29863 5.002 3.3093C4.684 3.49397 4.276 3.3853 4.09133 3.06663C3.90667 2.7493 4.014 2.34197 4.33133 2.15663C4.39933 2.11663 5.68 1.38463 7.56333 1.05663C7.418 0.652634 7.27133 0.245301 7.26867 0.239968C7.19867 0.083301 7.03667 -0.0153659 6.866 0.00196742C6.758 0.0106341 4.20267 0.230634 2.56533 1.5473C1.70933 2.33797 0 6.96063 0 10.9573C0 11.028 0.018 11.0966 0.0533334 11.158C1.234 13.2313 4.45267 13.774 5.186 13.7973C5.19067 13.798 5.19467 13.798 5.19867 13.798C5.328 13.798 5.45 13.736 5.52667 13.6313L6.32 12.5566C4.58 12.1373 3.66 11.478 3.60467 11.4373C3.30867 11.2193 3.24467 10.802 3.46267 10.5053C3.68 10.21 4.096 10.1446 4.392 10.3613C4.41667 10.3773 6.11467 11.566 9.33333 11.566C12.5647 11.566 14.258 10.3726 14.2747 10.3606C14.5707 10.146 14.988 10.2106 15.2047 10.508C15.4207 10.804 15.358 11.2186 15.0633 11.436C15.008 11.4766 14.0927 12.1346 12.3567 12.554L13.14 13.6306C13.2167 13.736 13.3387 13.7973 13.468 13.7973C13.4727 13.7973 13.4767 13.7973 13.4807 13.7966C14.2147 13.7733 17.4333 13.2306 18.6133 11.1573C18.6487 11.096 18.6667 11.0273 18.6667 10.9566C18.6667 6.96063 16.9573 2.33797 16.08 1.52997ZM6.66667 9.56597C5.93 9.56597 5.33333 8.81997 5.33333 7.8993C5.33333 6.97863 5.93 6.23263 6.66667 6.23263C7.40333 6.23263 8 6.97863 8 7.8993C8 8.81997 7.40333 9.56597 6.66667 9.56597ZM12 9.56597C11.2633 9.56597 10.6667 8.81997 10.6667 7.8993C10.6667 6.97863 11.2633 6.23263 12 6.23263C12.7367 6.23263 13.3333 6.97863 13.3333 7.8993C13.3333 8.81997 12.7367 9.56597 12 9.56597Z" fill="white"/>
</svg>
